<svg xmlns="http://www.w3.org/2000/svg" xmlns:xlink="http://www.w3.org/1999/xlink" x="0px" y="0px" viewBox="0 0 512 512" style="enable-background:new 0 0 512 512;" xml:space="preserve">
<g>
	<g>
		<path d="M421.576,0h-164.38c-15.908,0-30.065,9.519-36.068,24.249l-26.262,64.443c-0.825,2.023-2.219,3.767-3.983,5.035    L173.25,61.678l-12.961,7.131l-18.953-34.447L51.475,83.808l18.954,34.447l-15.578,8.572l17.663,32.098    c-7.134,3.933-11.566,11.434-11.566,19.581v285.668c0,26.371,21.454,47.824,47.824,47.824h303.929    c26.371,0,47.824-21.454,47.824-47.824V38.948C460.525,17.473,443.052,0,421.576,0z M135.425,54.734l11.386,20.692l-5.786,3.184    L129.6,57.939L135.425,54.734z M116.459,65.169l11.425,20.671l-6.273,3.452L110.186,68.62L116.459,65.169z M97.046,75.851    l11.425,20.671l-6.273,3.452L90.774,79.303L97.046,75.851z M71.846,89.718l5.786-3.185l11.425,20.671l-5.826,3.206L71.846,89.718z     M167.34,82.049l10.229,18.589l-92.118,50.687l-10.228-18.589L167.34,82.049z M445.526,464.176    c0,18.101-14.726,32.825-32.825,32.825H108.772c-18.101,0-32.825-14.726-32.825-32.825V178.507c0-2.686,1.462-5.158,3.815-6.451    l117.182-64.438c5.325-2.928,9.519-7.638,11.812-13.266l26.262-64.443c3.693-9.056,12.398-14.91,22.179-14.91h164.38    c13.206,0,23.95,10.744,23.95,23.949V464.176z"></path>
	</g>
</g>
<g>
	<g>
		<path d="M399.967,41.765H274.101c-9.041,0-16.937,5.795-19.648,14.419l-9.251,29.428c-1.672,5.32-0.739,10.948,2.56,15.444    c3.298,4.496,8.388,7.074,13.965,7.074h141.516c9.551,0,17.323-7.77,17.323-17.323V62.362    C420.564,51.005,411.324,41.765,399.967,41.765z M405.565,90.808c0,1.281-1.042,2.324-2.324,2.324H261.726    c-1.024,0-1.613-0.595-1.874-0.949c-0.26-0.356-0.65-1.096-0.343-2.072l9.251-29.428c0.737-2.344,2.883-3.919,5.341-3.919h125.865    c3.087,0,5.599,2.512,5.599,5.599V90.808z"></path>
	</g>
</g>
<g>
	<g>
		<rect x="263.739" y="468.962" width="31.687" height="14.999"></rect>
	</g>
</g>
<g>
	<g>
		<path d="M418.643,425.29v32.774c0,6.008-4.888,10.895-10.895,10.895h-96.829v14.999h96.829c14.278,0,25.894-11.616,25.894-25.894    V425.29H418.643z"></path>
	</g>
</g>
<g>
	<g>
		<path d="M260.675,177.667c-63.69,0-115.506,51.816-115.506,115.506s51.816,115.506,115.506,115.506    s115.506-51.816,115.506-115.506S324.366,177.667,260.675,177.667z M268.174,393.399v-61.426c3.019,0.431,6.069,0.656,9.125,0.656    c17.154,0,33.277-6.677,45.401-18.801c16.153-16.153,22.522-39.923,16.623-62.034l-1.119-4.194l-4.194-1.119    c-5.418-1.446-11.014-2.179-16.634-2.179c-17.153,0-33.276,6.677-45.4,18.8c-6.255,6.255-11.037,13.657-14.214,21.659    c-2.406-3.707-5.204-7.192-8.389-10.377c-12.124-12.124-28.248-18.8-45.4-18.8c-5.62,0-11.215,0.733-16.634,2.179l-4.194,1.119    l-1.119,4.194c-5.901,22.111,0.469,45.88,16.622,62.034c12.124,12.124,28.248,18.801,45.401,18.802h0.001    c3.057,0,6.106-0.225,9.124-0.656V393.4c-51.931-3.849-93.008-47.33-93.008-100.228c0-55.42,45.087-100.507,100.507-100.507    s100.507,45.087,100.507,100.507C361.182,346.069,320.105,389.551,268.174,393.399z M292.719,282.48l-24.485,24.485    c0.408-12.346,5.416-24.323,14.349-33.256c9.291-9.291,21.647-14.408,34.794-14.408c2.822,0,5.635,0.241,8.407,0.718    c2.686,15.662-2.363,31.877-13.689,43.203c-8.932,8.932-20.7,13.993-33.278,14.371l24.507-24.507L292.719,282.48z     M242.535,328.875c-12.578-0.379-24.347-5.44-33.278-14.371c-11.325-11.326-16.374-27.541-13.688-43.204    c2.772-0.477,5.586-0.718,8.407-0.718c13.147,0,25.504,5.117,34.794,14.408c8.933,8.933,13.941,20.91,14.349,33.256    l-22.761-22.759l-10.605,10.605L242.535,328.875z"></path>
	</g>
</g>
<g>
	<g>
		<polygon points="112.66,165.903 86.519,181.203 86.519,248.948 101.518,248.948 101.518,189.803 120.236,178.847   "></polygon>
	</g>
</g>
<g>
	<g>
		<path d="M260.675,149.223c-79.374,0-143.949,64.576-143.949,143.949c0,79.375,64.576,143.95,143.949,143.95    c79.375,0,143.95-64.576,143.95-143.95C404.626,213.799,340.05,149.223,260.675,149.223z M260.675,422.124    c-71.103,0-128.951-57.847-128.951-128.952c0-71.103,57.847-128.951,128.951-128.951c71.104,0,128.952,57.847,128.952,128.951    C389.627,364.277,331.779,422.124,260.675,422.124z"></path>
	</g>
</g>
</svg>