<svg xmlns="http://www.w3.org/2000/svg" xmlns:xlink="http://www.w3.org/1999/xlink" x="0px" y="0px" viewBox="0 0 512 512" style="enable-background:new 0 0 512 512;" xml:space="preserve">
<g>
	<g>
		<path d="M321.115,336.16c6.426,1.376,12.99,2.083,19.579,2.083c24.847,0,48.204-9.671,65.767-27.233    c23.399-23.4,32.625-57.834,24.076-89.866l-1.116-4.183l-4.183-1.116c-7.849-2.095-15.958-3.158-24.098-3.158    c-24.847,0-48.203,9.672-65.767,27.235c-22.425,22.426-31.821,54.987-25.039,85.855l-46.853,46.854V259.396l48.096-48.096    c5.334,1.098,10.774,1.662,16.233,1.662c21.372,0,41.461-8.319,56.565-23.424c20.125-20.125,28.059-49.741,20.708-77.291    l-1.116-4.183l-4.183-1.116c-6.752-1.802-13.725-2.716-20.726-2.716c-21.371,0-41.46,8.319-56.564,23.424    c-19.139,19.14-27.243,46.863-21.668,73.229l-37.344,37.344v-77.218c26.493-17.054,42.785-46.645,42.785-78.273    c0-33.091-17.824-63.963-46.519-80.57L255.997,0l-3.748,2.169c-28.694,16.606-46.519,47.478-46.519,80.57    c0,31.628,16.291,61.219,42.785,78.273v77.218l-37.343-37.343c5.575-26.366-2.528-54.09-21.669-73.229    c-15.105-15.106-35.193-23.425-56.564-23.425c-7.002,0-13.974,0.914-20.726,2.716l-4.184,1.116l-1.116,4.183    c-7.351,27.549,0.584,57.165,20.709,77.291c15.105,15.105,35.192,23.424,56.564,23.424c0.001,0,0,0,0.001,0    c5.459,0,10.899-0.564,16.233-1.662l48.096,48.096v113.235l-46.853-46.853c6.781-30.869-2.615-63.43-25.04-85.857    c-17.563-17.562-40.919-27.234-65.766-27.234c-8.141,0-16.249,1.063-24.099,3.158l-4.183,1.117l-1.116,4.183    c-8.548,32.031,0.678,66.466,24.077,89.865c17.562,17.561,40.918,27.232,65.766,27.233c0.001,0,0.001,0,0.002,0    c6.587,0,13.152-0.707,19.577-2.083l57.637,57.637v39.165h-76.812v33.872h-17.044c-20.098,0-36.449,16.351-36.449,36.448V512    h275.576v-8.717c0-20.098-16.351-36.448-36.448-36.448h-17.045v-33.872h-76.812v-39.165L321.115,336.16z M395.88,300.427    c-14.736,14.735-34.335,22.85-55.185,22.85c-2.142,0-4.28-0.112-6.411-0.286l84.173-84.173    C420.282,261.439,412.181,284.127,395.88,300.427z M345.955,250.504c14.737-14.736,34.335-22.851,55.185-22.851    c2.336,0,4.665,0.124,6.986,0.331l-84.694,84.694C321.425,289.87,329.518,266.941,345.955,250.504z M373.79,178.956    c-12.278,12.279-28.608,19.041-45.982,19.041c-0.955,0-1.909-0.028-2.861-0.069l67.808-67.808    C393.512,148.131,386.773,165.974,373.79,178.956z M333.073,138.239c12.278-12.279,28.608-19.041,45.981-19.041    c1.122,0,2.245,0.033,3.364,0.091l-68.284,68.284C313.232,169.395,319.971,151.341,333.073,138.239z M184.185,197.997    c-17.375,0-33.705-6.762-45.983-19.041c-12.982-12.981-19.721-30.826-18.965-48.836l67.808,67.808    C186.093,197.97,185.14,197.997,184.185,197.997z M197.857,187.574l-68.285-68.284c1.119-0.058,2.242-0.091,3.364-0.091    c17.375-0.001,33.704,6.761,45.982,19.04C192.021,151.342,198.76,169.395,197.857,187.574z M171.299,323.278c0,0-0.001,0-0.002,0    c-20.852,0-40.45-8.116-55.184-22.85c-16.301-16.301-24.401-38.988-22.578-61.609l84.172,84.172    C175.577,323.166,173.441,323.278,171.299,323.278z M188.56,312.679l-84.695-84.694c2.322-0.208,4.651-0.331,6.987-0.331    c20.851,0,40.449,8.116,55.184,22.851C182.473,266.941,190.566,289.87,188.56,312.679z M357.336,481.8    c9.672,0,17.873,6.426,20.556,15.234H134.101c2.683-8.807,10.883-15.234,20.556-15.234H357.336z M325.326,447.928v18.906H186.666    v-18.906H325.326z M255.997,148.041c-21.882-14.373-35.302-39.004-35.302-65.302c0-26.298,13.419-50.929,35.302-65.303    c21.882,14.375,35.302,39.005,35.302,65.303C291.298,109.037,277.879,133.667,255.997,148.041z"></path>
	</g>
</g>
<g>
	<g>
		<polygon points="257.606,73.92 267.899,46.348 253.878,41.113 236.044,88.886 258.332,88.886 249.13,125.62 263.647,129.257     277.51,73.92   "></polygon>
	</g>
</g>
<g>
	<g>
		<rect x="466.435" y="239.116" width="44.988" height="14.966"></rect>
	</g>
</g>
<g>
	<g>
		<rect x="426.924" y="143.745" transform="matrix(0.7071 -0.7071 0.7071 0.7071 24.6973 362.08)" width="44.987" height="14.966"></rect>
	</g>
</g>
<g>
	<g>
		
			<rect x="441.952" y="319.477" transform="matrix(0.7071 -0.7071 0.7071 0.7071 -110.1736 417.958)" width="14.966" height="44.987"></rect>
	</g>
</g>
<g>
	<g>
		<rect x="0.578" y="239.116" width="44.988" height="14.966"></rect>
	</g>
</g>
<g>
	<g>
		
			<rect x="55.091" y="128.731" transform="matrix(0.7071 -0.7071 0.7071 0.7071 -88.6046 88.5394)" width="14.966" height="44.987"></rect>
	</g>
</g>
<g>
	<g>
		
			<rect x="40.066" y="334.465" transform="matrix(0.7071 -0.7071 0.7071 0.7071 -223.4705 144.3905)" width="44.987" height="14.966"></rect>
	</g>
</g>
</svg>