<svg xmlns="http://www.w3.org/2000/svg" xmlns:xlink="http://www.w3.org/1999/xlink" x="0px" y="0px" viewBox="0 0 511.995 511.995" style="enable-background:new 0 0 511.995 511.995;" xml:space="preserve">
<g>
	<g>
		<rect x="215.55" y="200.407" width="80.895" height="15"></rect>
	</g>
</g>
<g>
	<g>
		<path d="M400.629,249.764l-1.12-4.193l-4.194-1.119c-6.892-1.839-14.009-2.771-21.156-2.771c-21.815,0-42.321,8.492-57.739,23.91    c-19.504,19.504-27.781,47.739-22.148,74.611L276.5,357.974v-99.759h15.305c20.819,0,37.757-16.938,37.757-37.757v-64.913h10.94    V90.053h-26.396V20.608c0-11.328-9.216-20.544-20.544-20.544s-20.544,9.216-20.544,20.544v69.445h-34.034V20.608    c0-11.328-9.216-20.544-20.544-20.544s-20.544,9.216-20.544,20.544v69.445H171.5v65.493h10.94v64.913    c0,20.819,16.938,37.757,37.757,37.757H235.5V406.31l-19.074-19.074c5.633-26.872-2.644-55.107-22.148-74.611    c-15.418-15.419-35.924-23.91-57.74-23.91c-7.146,0-14.265,0.932-21.156,2.771l-4.194,1.119l-1.119,4.194    c-7.504,28.122,0.596,58.353,21.139,78.896c15.418,15.418,35.923,23.91,57.739,23.91c0.001,0,0.001,0,0.001,0    c5.676,0,11.331-0.598,16.871-1.761l29.68,29.68v69.408h-35.745v15H235.5h41h35.745v-15H276.5V379.187l28.378-28.378    c5.541,1.163,11.196,1.761,16.873,1.761c21.815,0,42.321-8.492,57.739-23.91C400.033,308.117,408.133,277.886,400.629,249.764z     M188.949,384.604h-0.001c-17.81,0-34.548-6.932-47.133-19.517c-13.45-13.451-20.358-31.994-19.407-50.657l70.075,70.075    C191.307,384.567,190.129,384.604,188.949,384.604z M203.078,373.888l-70.075-70.075c1.176-0.062,2.355-0.099,3.534-0.099    c17.81,0,34.548,6.931,47.134,19.517C197.123,336.683,204.031,355.225,203.078,373.888z M288.017,20.608    c0-3.057,2.487-5.544,5.544-5.544s5.544,2.487,5.544,5.544v69.445h-11.088V20.608z M212.895,20.608    c0-3.057,2.487-5.544,5.544-5.544s5.544,2.487,5.544,5.544v69.445h-11.088V20.608z M186.498,140.546v-35.493h139.004v35.493    H186.498z M261.5,496.931h-11V258.216h11V496.931z M220.195,243.216c-12.548,0-22.757-10.208-22.757-22.757v-64.913h117.124    v64.913c0,12.548-10.208,22.757-22.757,22.757H220.195z M327.026,276.197c12.585-12.585,29.324-19.517,47.133-19.517    c1.18,0,2.359,0.037,3.535,0.099l-70.075,70.075C306.667,308.191,313.575,289.649,327.026,276.197z M368.883,318.054    c-12.585,12.585-29.324,19.517-47.133,19.517c-1.18,0-2.358-0.037-3.535-0.099l70.075-70.075    C389.243,286.061,382.335,304.603,368.883,318.054z"></path>
	</g>
</g>
<g>
	<g>
		<rect x="459.37" y="248.427" width="52.625" height="15"></rect>
	</g>
</g>
<g>
	<g>
		<rect x="413.157" y="136.869" transform="matrix(0.7071 -0.7071 0.7071 0.7071 26.6335 353.037)" width="52.626" height="15"></rect>
	</g>
</g>
<g>
	<g>
		<rect x="431.978" y="341.183" transform="matrix(0.7071 -0.7071 0.7071 0.7071 -131.1388 418.3949)" width="15" height="52.626"></rect>
	</g>
</g>
<g>
	<g>
		<rect y="248.427" width="52.625" height="15"></rect>
	</g>
</g>
<g>
	<g>
		<rect x="65.024" y="118.059" transform="matrix(0.7071 -0.7071 0.7071 0.7071 -80.8444 93.5681)" width="15" height="52.625"></rect>
	</g>
</g>
<g>
	<g>
		<rect x="46.213" y="360.003" transform="matrix(0.7071 -0.7071 0.7071 0.7071 -238.6219 158.9224)" width="52.626" height="15"></rect>
	</g>
</g>
</svg>