<svg xmlns="http://www.w3.org/2000/svg" xmlns:xlink="http://www.w3.org/1999/xlink" x="0px" y="0px" viewBox="0 0 512 512" style="enable-background:new 0 0 512 512;" xml:space="preserve">
<g>
	<g>
		<path d="M48.419,319.06v60.143h124.013V319.06H48.419z M157.465,364.236H63.387v-30.208h94.078V364.236z"></path>
	</g>
</g>
<g>
	<g>
		<path d="M48.419,409.414v60.144h124.013v-60.144H48.419z M157.465,454.591H63.387v-30.209h94.078V454.591z"></path>
	</g>
</g>
<g>
	<g>
		<path d="M193.994,319.06v60.143h124.013V319.06H193.994z M303.04,364.236h-94.078v-30.208h94.078V364.236z"></path>
	</g>
</g>
<g>
	<g>
		<path d="M339.566,319.06v60.143H463.58V319.06H339.566z M448.612,364.236h-94.078v-30.208h94.078V364.236z"></path>
	</g>
</g>
<g>
	<g>
		<path d="M193.994,409.414v60.144h124.013v-60.144H193.994z M303.04,454.591h-94.078v-30.209h94.078V454.591z"></path>
	</g>
</g>
<g>
	<g>
		<path d="M339.566,409.414v60.144H463.58v-60.144H339.566z M448.612,454.591h-94.078v-30.209h94.078V454.591z"></path>
	</g>
</g>
<g>
	<g>
		<path d="M331.17,165.258v107.724l-67.686-44.108V120.956c5.566,1.05,11.228,1.59,16.906,1.59c24.225,0,46.998-9.43,64.121-26.552    c22.812-22.813,31.808-56.385,23.473-87.615l-1.117-4.184l-4.184-1.117C355.03,1.036,347.124,0,339.187,0    c-24.226,0-46.998,9.43-64.12,26.551c-10.625,10.625-18.249,23.586-22.524,37.555c-4.111-7.632-9.336-14.727-15.612-21.003    c-17.123-17.122-39.894-26.552-64.121-26.552c-7.937,0-15.842,1.036-23.494,3.078l-4.185,1.116l-1.117,4.185    c-8.334,31.23,0.662,64.801,23.474,87.616c17.122,17.122,39.892,26.551,64.119,26.551c0,0,0,0,0.001,0    c5.679,0,11.34-0.54,16.906-1.59v81.613l-82.653-53.862v107.725L0.555,165.258V512h510.889V282.736L331.17,165.258z     M285.652,37.135c14.295-14.295,33.307-22.168,53.536-22.168c5.162,0,10.306,0.523,15.348,1.56    c5.094,24.831-2.599,50.873-20.608,68.882c-14.295,14.296-33.308,22.169-53.536,22.169c-2.025,0-4.044-0.105-6.058-0.264    l41.749-41.75l-10.584-10.584l-41.763,41.764C262.017,74.852,269.877,52.911,285.652,37.135z M248.264,113.294l-39.233-39.232    l-10.583,10.584l39.219,39.219c-2.014,0.161-4.034,0.264-6.059,0.264c-20.228,0-39.241-7.873-53.536-22.169    c-18.008-18.008-25.702-44.05-20.607-68.882c5.04-1.036,10.185-1.56,15.346-1.56c20.228,0,39.242,7.874,53.537,22.17    C242.122,69.463,249.982,91.403,248.264,113.294z M496.477,497.033H15.523V192.877L180.83,300.602V192.878l165.307,107.724    V192.877l150.34,97.971V497.033z"></path>
	</g>
</g>
</svg>