<svg xmlns="http://www.w3.org/2000/svg" xmlns:xlink="http://www.w3.org/1999/xlink" x="0px" y="0px" viewBox="0 0 512 512" style="enable-background:new 0 0 512 512;" xml:space="preserve">
<g>
	<g>
		<rect x="464.383" y="342.713" width="46.997" height="14.964"></rect>
	</g>
</g>
<g>
	<g>
		
			<rect x="423.098" y="243.077" transform="matrix(0.7071 -0.7071 0.7071 0.7071 -46.3669 389.1782)" width="46.996" height="14.964"></rect>
	</g>
</g>
<g>
	<g>
		
			<rect x="439.142" y="426.343" transform="matrix(0.7071 -0.7071 0.7071 0.7071 -187.2728 447.5661)" width="14.964" height="46.996"></rect>
	</g>
</g>
<g>
	<g>
		<rect x="0.62" y="342.713" width="46.997" height="14.964"></rect>
	</g>
</g>
<g>
	<g>
		
			<rect x="57.912" y="227.055" transform="matrix(0.7071 -0.7071 0.7071 0.7071 -158.0146 119.6261)" width="14.964" height="46.996"></rect>
	</g>
</g>
<g>
	<g>
		
			<rect x="41.899" y="442.371" transform="matrix(0.7071 -0.7071 0.7071 0.7071 -298.9393 178.0017)" width="46.996" height="14.964"></rect>
	</g>
</g>
<g>
	<g>
		<path d="M417.808,385.628v-70.865h-26.341c-3.229-12.403-8.13-24.232-14.625-35.297l18.631-18.631l-50.108-50.108l-18.631,18.631    c-11.066-6.495-22.895-11.397-35.297-14.628v-26.341h-27.951v-61.246c6.037,1.174,12.186,1.772,18.353,1.772    c25.542,0,49.549-9.942,67.603-27.994c24.051-24.052,33.534-59.448,24.748-92.374l-1.116-4.184l-4.183-1.116    C360.82,1.091,352.486,0,344.118,0c-25.542,0-49.55,9.942-67.603,27.994c-11.465,11.465-19.611,25.51-24.054,40.633    c-4.409-8.412-10.091-16.222-16.97-23.101c-18.052-18.052-42.061-27.994-67.603-27.994c-8.369,0-16.703,1.092-24.771,3.245    l-4.183,1.116l-1.116,4.184c-8.787,32.926,0.696,68.321,24.748,92.374c18.052,18.052,42.061,27.994,67.603,27.994    c0.001,0,0.001,0,0.001,0c6.167,0,12.315-0.598,18.352-1.772v43.715h-27.951v26.341c-12.402,3.23-24.231,8.132-35.297,14.628    l-18.631-18.631l-50.108,50.108l18.631,18.631c-6.495,11.066-11.396,22.895-14.627,35.296H94.197v70.865h26.341    c3.23,12.402,8.131,24.231,14.627,35.296l-18.631,18.631l50.108,50.108l18.631-18.631c11.067,6.495,22.895,11.397,35.297,14.627    V512h70.864v-26.341c12.402-3.23,24.23-8.131,35.297-14.627l18.631,18.631l50.108-50.108l-18.631-18.631    c6.495-11.066,11.397-22.895,14.627-35.296H417.808z M287.098,38.575c15.224-15.226,35.475-23.611,57.021-23.611    c5.594,0,11.171,0.578,16.631,1.721c5.546,26.534-2.64,54.404-21.889,73.653c-15.226,15.226-35.476,23.611-57.02,23.611    c-2.478,0-4.951-0.133-7.414-0.358l60.983-60.983l-10.581-10.58l-60.985,60.985C261.705,79.383,270.067,55.605,287.098,38.575z     M248.167,120.544l-53.938-53.937l-10.581,10.58l53.936,53.935c-2.462,0.225-4.934,0.358-7.412,0.358c-0.001,0-0.002,0-0.003,0    c-21.545,0-41.795-8.386-57.02-23.611c-19.25-19.25-27.435-47.119-21.889-73.653c5.46-1.143,11.036-1.721,16.631-1.721    c21.545,0,41.795,8.386,57.02,23.611C241.941,73.137,250.303,96.914,248.167,120.544z M378.241,376.574    c-3.17,14.764-8.941,28.693-17.155,41.397l-3.282,5.078l16.506,16.505l-28.947,28.947l-16.506-16.505l-5.077,3.282    c-12.705,8.213-26.633,13.984-41.397,17.155l-5.912,1.269v23.336h-40.936v-23.336l-5.912-1.269    c-14.764-3.17-28.692-8.941-41.397-17.155l-5.077-3.282l-16.506,16.505l-28.947-28.947l16.506-16.505l-3.282-5.078    c-8.213-12.704-13.985-26.633-17.155-41.397l-1.269-5.911h-23.336v-40.937h23.336l1.269-5.911    c3.17-14.764,8.941-28.693,17.155-41.397l3.282-5.078l-16.506-16.505l28.947-28.947l16.506,16.505l5.077-3.282    c12.704-8.212,26.633-13.984,41.398-17.155l5.911-1.269v-23.336h40.936v23.336l5.911,1.269    c14.765,3.17,28.694,8.942,41.398,17.155l5.077,3.282l16.506-16.505l28.947,28.947l-16.506,16.505l3.282,5.078    c8.213,12.704,13.985,26.633,17.155,41.397l1.269,5.911h23.336v40.937H379.51L378.241,376.574z"></path>
	</g>
</g>
<g>
	<g>
		<path d="M256.004,253.537c-53.296,0-96.657,43.359-96.657,96.656s43.36,96.657,96.657,96.657    c53.297,0,96.657-43.359,96.657-96.657C352.66,296.898,309.299,253.537,256.004,253.537z M256.004,431.886    c-45.045,0-81.693-36.647-81.693-81.693c0-45.045,36.647-81.692,81.693-81.692c45.046,0,81.693,36.647,81.693,81.692    C337.696,395.24,301.049,431.886,256.004,431.886z"></path>
	</g>
</g>
<g>
	<g>
		<path d="M256.004,282.133c-37.528,0-68.061,30.531-68.061,68.06s30.531,68.061,68.061,68.061c37.53,0,68.061-30.531,68.061-68.061    S293.533,282.133,256.004,282.133z M256.004,403.29c-29.277,0-53.097-23.819-53.097-53.097c0-29.277,23.82-53.096,53.097-53.096    c29.277,0,53.097,23.819,53.097,53.096C309.1,379.472,285.28,403.29,256.004,403.29z"></path>
	</g>
</g>
</svg>