<svg xmlns="http://www.w3.org/2000/svg" xmlns:xlink="http://www.w3.org/1999/xlink" x="0px" y="0px" viewBox="0 0 512 512" style="enable-background:new 0 0 512 512;" xml:space="preserve">
<g>
	<g>
		<rect x="426.53" y="88.513" width="36.503" height="15.031"></rect>
	</g>
</g>
<g>
	<g>
		
			<rect x="394.482" y="11.132" transform="matrix(0.7071 -0.7071 0.7071 0.7071 107.7012 297.3081)" width="36.503" height="15.031"></rect>
	</g>
</g>
<g>
	<g>
		
			<rect x="405.218" y="155.17" transform="matrix(0.7071 -0.7071 0.7071 0.7071 -1.7407 342.6408)" width="15.031" height="36.503"></rect>
	</g>
</g>
<g>
	<g>
		<rect x="49.191" y="88.513" width="36.503" height="15.031"></rect>
	</g>
</g>
<g>
	<g>
		<rect x="91.981" y="0.398" transform="matrix(0.7071 -0.7071 0.7071 0.7071 15.9549 75.8172)" width="15.031" height="36.503"></rect>
	</g>
</g>
<g>
	<g>
		
			<rect x="81.242" y="165.908" transform="matrix(0.7071 -0.7071 0.7071 0.7071 -93.4878 121.1474)" width="36.503" height="15.031"></rect>
	</g>
</g>
<g>
	<g>
		<path d="M263.246,145.664v-48.69c3.721,0.589,7.487,0.892,11.265,0.892c19.122,0,37.098-7.443,50.612-20.959    c18.007-18.007,25.108-44.506,18.53-69.155l-1.121-4.203l-4.203-1.121C332.289,0.817,326.05,0,319.787,0    c-19.122,0-37.096,7.443-50.612,20.958c-7.432,7.432-13.001,16.314-16.522,25.911c-2.896-4.733-6.358-9.161-10.364-13.166    c-13.515-13.516-31.49-20.959-50.612-20.959c-6.264,0-12.503,0.817-18.543,2.429l-4.203,1.121l-1.121,4.203    c-6.578,24.65,0.522,51.147,18.529,69.156c13.515,13.515,31.489,20.958,50.611,20.959h0.001c3.777,0,7.545-0.303,11.265-0.892    v35.975c-97.39,4.151-175.345,84.668-175.345,183.061C72.87,429.797,155.073,512,256.113,512    c101.041,0,183.244-82.203,183.244-183.244C439.357,230.106,360.993,149.426,263.246,145.664z M279.802,31.586    c10.677-10.676,24.877-16.555,39.984-16.555c3.466,0,6.922,0.316,10.321,0.942c3.345,18.201-2.439,37.132-15.613,50.306    c-10.676,10.676-24.876,16.556-39.983,16.556c-0.207,0-0.415-0.012-0.622-0.014l29.344-29.345l-10.628-10.628l-29.33,29.329    C263.143,57.16,268.965,42.424,279.802,31.586z M237.574,95.566c-0.208,0.002-0.416,0.014-0.624,0.014    c-15.107,0-29.307-5.88-39.983-16.556c-13.173-13.174-18.957-32.106-15.612-50.307c3.399-0.626,6.855-0.942,10.321-0.942    c15.107,0,29.307,5.88,39.983,16.556c10.837,10.837,16.659,25.573,16.526,40.591l-27.379-27.38L210.177,68.17L237.574,95.566z     M207.265,167.786c-8.777,8.688-16.851,19.81-23.972,33.178c-5.58,10.476-10.388,21.995-14.383,34.312h-52.574    C137.732,203.388,169.741,179.196,207.265,167.786z M107.353,250.307h57.193c-5.679,21.991-8.919,46.027-9.464,70.933H88.078    C89.206,295.718,96.048,271.659,107.353,250.307z M88.078,336.272h67.005c0.544,24.906,3.785,48.943,9.464,70.933h-57.193    C96.048,385.853,89.206,361.794,88.078,336.272z M116.336,422.236h52.573c3.994,12.316,8.803,23.836,14.383,34.312    c7.121,13.369,15.195,24.491,23.972,33.178C169.741,478.318,137.733,454.125,116.336,422.236z M248.598,496.304    c-19.338-3.372-37.587-19.693-52.038-46.823c-4.47-8.393-8.411-17.526-11.801-27.245h63.84V496.304z M248.598,407.205h-68.51    c-5.979-21.751-9.401-45.838-9.972-70.933h78.482V407.205z M248.598,321.242h-78.482c0.57-25.096,3.992-49.182,9.972-70.933h68.51    V321.242z M248.598,235.276h-63.84c3.39-9.72,7.33-18.853,11.801-27.245c14.451-27.13,32.7-43.451,52.038-46.823V235.276z     M424.15,321.241h-67.006c-0.544-24.906-3.785-48.942-9.464-70.933h57.193C416.179,271.659,423.021,295.718,424.15,321.241z     M395.892,235.277h-52.574c-3.994-12.316-8.803-23.836-14.383-34.312c-7.121-13.369-15.195-24.491-23.972-33.178    C342.486,179.196,374.494,203.387,395.892,235.277z M263.629,161.21c19.338,3.372,37.588,19.693,52.039,46.823    c4.47,8.393,8.41,17.526,11.8,27.245h-63.84V161.21z M263.629,250.307h68.51c5.979,21.751,9.401,45.838,9.972,70.933h-78.482    V250.307z M263.629,336.272h78.482c-0.57,25.096-3.992,49.182-9.972,70.933h-68.51V336.272z M263.629,496.305v-74.068h63.84    c-3.39,9.72-7.33,18.853-11.8,27.245C301.216,476.612,282.967,492.932,263.629,496.305z M304.962,489.727    c8.777-8.688,16.851-19.81,23.972-33.178c5.579-10.476,10.388-21.995,14.383-34.312h52.574    C374.494,454.125,342.486,478.318,304.962,489.727z M347.681,407.205c5.678-21.99,8.919-46.027,9.463-70.933h67.006    c-1.128,25.523-7.97,49.581-19.276,70.933H347.681z"></path>
	</g>
</g>
<g>
	<g>
		<path d="M439.187,388.085c-10.687,33.005-30.221,62.592-56.492,85.563l9.894,11.315c28.314-24.759,49.373-56.658,60.898-92.247    L439.187,388.085z"></path>
	</g>
</g>
<g>
	<g>
		<path d="M448.297,337.851c-0.549,11.803-2.187,23.585-4.867,35.013l14.634,3.433c2.891-12.325,4.657-25.026,5.248-37.749    L448.297,337.851z"></path>
	</g>
</g>
<g>
	<g>
		<path d="M63.719,328.756c0-19.507,2.908-38.75,8.642-57.195l-14.353-4.462c-6.184,19.891-9.32,40.635-9.32,61.657    c0,25.222,4.478,49.871,13.309,73.26l14.062-5.31C67.871,375.019,63.719,352.158,63.719,328.756z"></path>
	</g>
</g>
</svg>