<svg xmlns="http://www.w3.org/2000/svg" xmlns:xlink="http://www.w3.org/1999/xlink" x="0px" y="0px" viewBox="0 0 512 512" style="enable-background:new 0 0 512 512;" xml:space="preserve">
<g>
	<g>
		<path d="M467.695,188.446L266.716,4.17C263.785,1.481,259.978,0,256,0c-3.978,0-7.785,1.481-10.716,4.169l-93.255,85.505V71.118    H93.237v72.461l-48.933,44.867c-4.857,4.453-6.451,11.297-4.062,17.437c2.389,6.141,8.189,10.108,14.778,10.108h21.426V512h0.386    h358.72v-45.228V215.992h21.427c6.588,0,12.389-3.968,14.778-10.108C474.146,199.742,472.552,192.898,467.695,188.446z     M108.39,86.27h28.487v17.298l-28.487,26.119V86.27z M420.401,496.848H91.985v-14.924h328.416V496.848z M420.401,466.771H263.576    v-81.902c6.315,1.242,12.749,1.872,19.203,1.872c26.427,0,51.268-10.287,69.947-28.965c24.886-24.886,34.698-61.509,25.606-95.576    l-1.13-4.237l-4.235-1.13c-8.349-2.228-16.972-3.358-25.63-3.358c-26.427,0-51.268,10.286-69.946,28.965    c-11.972,11.972-20.444,26.665-25.013,42.478c-4.591-8.857-10.537-17.078-17.764-24.306    c-18.678-18.678-43.519-28.965-69.946-28.965c-8.658,0-17.281,1.129-25.63,3.358l-4.235,1.13l-1.13,4.237    c-9.092,34.068,0.72,70.69,25.606,95.576c18.678,18.677,43.519,28.964,69.947,28.965c0.001,0,0.001,0,0.002,0    c6.453,0,12.885-0.629,19.201-1.872v63.73H91.599v-250.78h328.802V466.771z M263.981,360.469    c-2.344-24.672,6.34-49.533,24.122-67.315c15.816-15.816,36.851-24.526,59.231-24.526c2.703,0,5.4,0.144,8.085,0.403    L263.981,360.469z M366.131,279.747c2.345,24.671-6.339,49.532-24.121,67.314c-15.816,15.817-36.852,24.527-59.232,24.527    c-2.703,0-5.4-0.144-8.085-0.403L366.131,279.747z M156.58,287.203c2.685-0.259,5.382-0.403,8.085-0.403    c22.38,0,43.415,8.71,59.231,24.526c17.782,17.782,26.466,42.644,24.122,67.315L156.58,287.203z M237.306,389.358    c-2.684,0.259-5.381,0.403-8.083,0.403c0,0-0.001,0-0.002,0c-22.381,0-43.416-8.711-59.232-24.527    c-17.781-17.781-26.465-42.643-24.121-67.314L237.306,389.358z M457.636,200.389c-0.175,0.449-0.454,0.449-0.657,0.449H55.02    c-0.203,0-0.483,0-0.657-0.449c-0.175-0.45,0.03-0.637,0.181-0.775l97.485-89.265v-0.118l103.495-94.894    c0.133-0.122,0.294-0.185,0.476-0.185c0.182,0,0.342,0.063,0.477,0.186l200.98,184.277    C457.606,199.753,457.811,199.94,457.636,200.389z"></path>
	</g>
</g>
<g>
	<g>
		<path d="M256,81.162c-23.633,0-42.861,19.227-42.861,42.861s19.227,42.861,42.861,42.861s42.861-19.228,42.861-42.861    C298.861,100.39,279.633,81.162,256,81.162z M256,151.733c-15.278,0-27.709-12.431-27.709-27.709S240.722,96.315,256,96.315    s27.709,12.43,27.709,27.709C283.709,139.303,271.278,151.733,256,151.733z"></path>
	</g>
</g>
<g>
	<g>
		<rect x="113.994" y="224.432" width="86.853" height="15.152"></rect>
	</g>
</g>
<g>
	<g>
		<rect x="214.886" y="224.432" width="24.565" height="15.152"></rect>
	</g>
</g>
<g>
	<g>
		<polygon points="397.912,413.952 397.912,443.841 356.358,443.841 356.358,458.993 413.064,458.993 413.064,413.952   "></polygon>
	</g>
</g>
</svg>