<svg xmlns="http://www.w3.org/2000/svg" xmlns:xlink="http://www.w3.org/1999/xlink" x="0px" y="0px" viewBox="0 0 512.001 512.001" style="enable-background:new 0 0 512.001 512.001;" xml:space="preserve">
<g>
	<g>
		<rect x="88.27" y="63.835" width="14.839" height="14.942"></rect>
	</g>
</g>
<g>
	<g>
		<rect x="177.297" y="87.663" width="14.84" height="14.943"></rect>
	</g>
</g>
<g>
	<g>
		<rect x="168.242" y="15.279" width="14.839" height="14.942"></rect>
	</g>
</g>
<g>
	<g>
		<rect x="273.198" y="21.726" width="14.839" height="14.943"></rect>
	</g>
</g>
<g>
	<g>
		<rect x="10.077" y="21.726" width="14.84" height="14.943"></rect>
	</g>
</g>
<g>
	<g>
		<rect x="341.764" y="157.515" width="14.839" height="14.943"></rect>
	</g>
</g>
<g>
	<g>
		<rect x="384.669" y="92.057" width="14.839" height="14.943"></rect>
	</g>
</g>
<g>
	<g>
		<rect x="461.892" y="49.221" width="14.84" height="14.943"></rect>
	</g>
</g>
<g>
	<g>
		<path d="M154.818,257.496c-43.201,0-78.347,35.147-78.347,78.347s35.147,78.347,78.347,78.347    c43.201,0,78.347-35.147,78.347-78.347S198.019,257.496,154.818,257.496z M135.554,396.248    c-25.571-8.174-44.141-32.157-44.141-60.404c0-34.961,28.444-63.405,63.405-63.405c1.234,0,2.459,0.045,3.676,0.115    l-52.306,65.706c-2.108,2.648-2.504,6.185-1.035,9.234c1.47,3.048,4.485,4.942,7.869,4.942h29.267L135.554,396.248z     M154.115,373.86l4.044-26.305c0.388-2.521-0.343-5.079-2.004-7.015c-1.662-1.937-4.078-3.047-6.629-3.047h-23.627l32.165-40.405    l-4.702,18.119c-0.682,2.632-0.122,5.375,1.539,7.528c1.661,2.153,4.172,3.392,6.891,3.4l23.391,0.071L154.115,373.86z     M155.411,399.233l48.52-74.428c1.75-2.684,1.892-6.102,0.37-8.922s-4.458-4.576-7.66-4.586l-26.808-0.082l8.849-34.101    c23.166,9.448,39.541,32.206,39.541,58.728C218.223,370.606,190.099,398.912,155.411,399.233z"></path>
	</g>
</g>
<g>
	<g>
		<path d="M473.003,193.861h-7.151c6.821-10.646,11.027-25.554,4.1-42.6c3.235-1.889,7.084-4.565,10.635-8.137    c7.062-7.106,14.174-18.893,10.522-35.997c6.958-4.733,18.029-14.819,19.874-31.91l-14.857-1.605    c-1.731,16.035-16.209,22.889-16.783,23.154l-6.212,2.773l2.181,6.444c8.281,24.469-15.177,33.846-17.849,34.823l-8.446,3.006    l4.481,7.766c6.174,10.703,6.696,21.142,1.55,31.028c-2.791,5.364-6.581,9.274-8.754,11.254H318.151    c-3.647-2.625-12.547-9.936-14.784-20.172c-1.521-6.956,0.245-14.04,5.399-21.656l5.459-7.981l-9.102-3.231    c-0.069-0.026-7.036-2.659-12.546-9.326c-6.183-7.482-8.21-17.138-6.069-28.749c2.807-0.073,5.832-0.343,8.956-0.943    c10.739-2.066,24.312-8.251,31.988-25.459c6.227,2.434,15.399,4.504,26.08,2.181c16.058-3.494,30.372-15.594,42.598-35.991    c7.065,0.391,19.573-0.316,29.376-8.379c8.814-7.249,13.283-18.409,13.283-33.171h-14.943c0,10.041-2.615,17.302-7.773,21.582    c-8.67,7.194-22.439,4.711-22.545,4.691l-5.338-1.05l-2.637,4.759c-10.513,18.969-22.276,30.04-34.963,32.906    c-12.908,2.919-22.512-3.803-22.868-4.056l-8.749-6.464l-2.892,10.487c-3.635,13.184-11.16,20.774-23.001,23.205    c-9.473,1.943-18.191-0.299-18.249-0.316l-10.266-2.789l0.86,10.603c3.039,37.461-18.015,44.819-21.797,45.834H69.547    c-3.423-0.949-17.583-6.537-15.386-33.628l0.813-10.479l-10.183,2.656c-2.417,0.63-23.794,5.523-29.873-16.514L0.514,86.38    c4.14,15.011,14.227,24.781,28.403,27.507c3.664,0.705,7.137,0.864,10.129,0.766c0.408,11.118,3.406,19.516,7.486,25.72h-8.49    L0,511.02h294.611h15.026h202.364L473.003,193.861z M459.784,208.803l2.19,17.805H295.575l1.807-17.805H459.784z M274.756,130.857    c1.953,4.369,4.402,7.952,6.854,10.809c3.539,4.124,7.36,7.115,10.608,9.199c-4.196,8.719-5.347,17.487-3.421,26.15    c1.471,6.616,4.593,12.264,8.086,16.845h-13.006l-3.379,33.29l-8.905-86.777h-2.746    C270.936,137.766,272.973,134.624,274.756,130.857z M51.53,155.316h206.577l2.719,26.487H48.811L51.53,155.316z M16.554,496.077    l0.574-5.586h42.973v-14.942h-41.44l1.004-9.784h25.852v-14.942H21.199l0.891-8.679h62.342v-14.943H23.624l23.653-230.455h215.082    l28.616,278.803h-96.07v14.943h97.604l0.574,5.585H16.554z M308.107,496.077l-19.978-196.109l5.929-58.417h169.753l31.297,254.526    H308.107z"></path>
	</g>
</g>
<g>
	<g>
		<path d="M378.512,292.498c-37.467,0-67.949,30.482-67.949,67.949s30.483,67.949,67.949,67.949    c37.467,0,67.949-30.482,67.949-67.949S415.98,292.498,378.512,292.498z M361.191,410.533    c-20.745-7.195-35.686-26.922-35.686-50.085c0-29.228,23.778-53.007,53.007-53.007c0.309,0,0.614,0.018,0.922,0.023    l-43.271,54.359c-2.064,2.591-2.455,6.055-1.017,9.039c1.438,2.986,4.389,4.839,7.702,4.839h23.697L361.191,410.533z     M380.483,363.739c-1.627-1.895-3.992-2.982-6.488-2.982h-17.887l22.814-28.66l-2.716,10.461c-0.668,2.576-0.12,5.263,1.506,7.371    c1.626,2.108,4.085,3.32,6.745,3.328l17.944,0.055l-22.635,34.721l2.679-17.431C382.824,368.136,382.109,365.633,380.483,363.739z     M381.076,413.389l40.263-61.764c1.711-2.626,1.85-5.971,0.361-8.729c-1.488-2.758-4.36-4.479-7.498-4.49l-21.461-0.065    l6.878-26.505c18.753,8.175,31.9,26.883,31.9,48.612C431.519,388.815,409.118,412.047,381.076,413.389z"></path>
	</g>
</g>
<g>
	<g>
		<rect x="228.58" y="449.431" width="29.329" height="14.943"></rect>
	</g>
</g>
<g>
	<g>
		<rect x="168.242" y="203.199" width="54.457" height="14.943"></rect>
	</g>
</g>
<g>
	<g>
		<rect x="233.71" y="203.199" width="21.554" height="14.943"></rect>
	</g>
</g>
<g>
	<g>
		<rect x="381.511" y="475.55" width="57.481" height="14.943"></rect>
	</g>
</g>
<g>
	<g>
		<rect x="448.155" y="475.55" width="21.636" height="14.943"></rect>
	</g>
</g>
</svg>