<svg xmlns="http://www.w3.org/2000/svg" xmlns:xlink="http://www.w3.org/1999/xlink" x="0px" y="0px" viewBox="0 0 512 512" style="enable-background:new 0 0 512 512;" xml:space="preserve">
<g>
	<g>
		<path d="M304.72,201.828c-1.525-2.825-4.466-4.586-7.676-4.594l-26.076-0.079l9.79-37.728c0.687-2.647,0.128-5.396-1.533-7.543    c-1.654-2.138-4.255-3.415-6.957-3.415c-2.667,0-5.157,1.206-6.829,3.308l-57.303,71.984c-2.113,2.652-2.511,6.198-1.039,9.252    c1.472,3.054,4.493,4.952,7.885,4.952h28.512l-7.145,46.483c-0.39,2.532,0.336,5.091,1.991,7.021    c1.672,1.949,4.107,3.067,6.678,3.067c0,0,0,0,0.001,0c2.955,0,5.688-1.486,7.313-3.978l52.016-79.791    C306.102,208.078,306.245,204.653,304.72,201.828z M255.615,258.013l3.84-24.987c0.391-2.527-0.342-5.09-2.005-7.031    c-1.666-1.941-4.087-3.055-6.645-3.055h-22.812l30.803-38.694l-4.4,16.958c-0.685,2.637-0.123,5.387,1.541,7.543    c1.664,2.158,4.181,3.4,6.905,3.408l22.624,0.068L255.615,258.013z"></path>
	</g>
</g>
<g>
	<g>
		<path d="M351.437,93.103c-22.176-37.62-53.877-69.062-91.675-90.928L256,0l-3.761,2.176    c-37.798,21.866-69.499,53.308-91.675,90.928c-22.85,38.76-34.927,83.16-34.927,128.399c0,45.239,12.078,89.639,34.927,128.399    c21.435,36.362,51.787,66.925,87.924,88.676V512h15.025v-73.423c36.137-21.751,66.489-52.314,87.924-88.676    c22.85-38.76,34.927-83.16,34.927-128.399S374.286,131.864,351.437,93.103z M263.513,22.138    c16.5,10.819,31.423,23.55,44.546,37.801l-44.546,44.546V22.138z M248.488,22.138v82.347l-44.546-44.546    C217.064,45.689,231.987,32.957,248.488,22.138z M248.487,420.866c-50.131-32.868-85.72-83.397-100.377-140.511l100.377,100.377    V420.866z M263.513,420.866v-40.134L363.89,280.355C349.233,337.469,313.644,387.998,263.513,420.866z M367.769,255.226    L263.513,359.486v-57.729h-15.025v57.729L144.23,255.228l-1.003,1.003c-1.696-11.413-2.566-23.016-2.566-34.728    c0-18.394,2.151-36.518,6.267-54.058l50.743,50.743l10.623-10.623l-56.803-56.803c9.05-28.937,23.54-55.916,42.6-79.425    l54.396,54.396v18.392h15.025v-18.392l54.396-54.396c19.059,23.509,33.551,50.488,42.6,79.423l-51.279,51.279l10.623,10.623    l45.219-45.219c4.116,17.541,6.267,35.664,6.267,54.058c0,11.712-0.871,23.315-2.566,34.728L367.769,255.226z"></path>
	</g>
</g>
<g>
	<g>
		<path d="M46.972,220.495c0-55.192,22.685-107.185,62.652-144.654l0.299,26.779l15.024-0.168l-0.581-51.884l-51.884,0.581    l0.168,15.024l25.633-0.287c-42.334,40.227-66.336,95.726-66.336,154.611c0,64.202,28.515,124.391,78.232,165.136l9.524-11.621    C73.481,336.132,46.972,280.177,46.972,220.495z"></path>
	</g>
</g>
<g>
	<g>
		<path d="M416.806,372.111c40.409-39.963,63.246-94.178,63.246-151.616c0-64.202-28.515-124.391-78.232-165.136l-9.524,11.621    c46.222,37.879,72.731,93.833,72.731,153.515c0,53.26-21.125,103.539-58.518,140.665l-0.289-25.796l-15.024,0.168l0.582,51.884    l51.884-0.582l-0.168-15.024L416.806,372.111z"></path>
	</g>
</g>
</svg>