<svg xmlns="http://www.w3.org/2000/svg" xmlns:xlink="http://www.w3.org/1999/xlink" x="0px" y="0px" viewBox="0 0 512 512" style="enable-background:new 0 0 512 512;" xml:space="preserve">
<g>
	<g>
		<rect x="228.43" y="148.06" width="14.897" height="15"></rect>
	</g>
</g>
<g>
	<g>
		<rect x="145.39" y="285.77" width="14.897" height="15"></rect>
	</g>
</g>
<g>
	<g>
		<rect x="322.33" y="321.08" width="14.896" height="15"></rect>
	</g>
</g>
<g>
	<g>
		<rect x="202.38" y="328.15" width="14.896" height="15"></rect>
	</g>
</g>
<g>
	<g>
		<rect x="310.18" y="168.07" width="14.896" height="15"></rect>
	</g>
</g>
<g>
	<g>
		<path d="M470.587,203.493c-5.344-21.94-13.978-42.774-25.731-62.093l29.291-29.292l-74.255-74.256L370.6,67.144    c-19.318-11.753-40.152-20.386-62.093-25.73V0H203.493v41.413c-21.94,5.344-42.774,13.978-62.093,25.73l-29.292-29.291    l-74.255,74.256L67.144,141.4c-11.753,19.319-20.387,40.153-25.731,62.093H0v105.014h41.413    c5.344,21.939,13.979,42.775,25.731,62.093l-29.291,29.292l74.255,74.256l29.292-29.291    c19.319,11.753,40.153,20.387,62.093,25.731V512h105.014v-41.413c21.94-5.344,42.774-13.978,62.093-25.731l29.292,29.291    l74.255-74.256L444.856,370.6c11.752-19.317,20.387-40.154,25.731-62.093H512v0V203.493H470.587z M497,293.507h-38.449    l-1.273,5.925c-5.221,24.315-14.726,47.252-28.25,68.174l-3.29,5.09l27.195,27.195l-53.042,53.043l-27.196-27.195l-5.09,3.29    c-20.921,13.524-43.859,23.029-68.174,28.25l-5.925,1.272V497h-75.014v-38.449l-5.925-1.272    c-24.315-5.221-47.252-14.725-68.174-28.25l-5.09-3.29l-27.196,27.195l-53.042-53.043l27.195-27.195l-3.29-5.09    c-13.524-20.921-23.029-43.859-28.25-68.174l-1.272-5.925H15v-75.014h38.449l1.272-5.925c5.221-24.315,14.725-47.252,28.25-68.175    l3.29-5.089l-27.195-27.195l53.042-53.043l27.196,27.195l5.089-3.29c20.922-13.524,43.859-23.029,68.174-28.25l5.925-1.272V15    h75.014v38.449l5.925,1.272c24.315,5.221,47.252,14.726,68.174,28.25l5.089,3.29l27.196-27.195l53.042,53.043l-27.195,27.195    l3.29,5.089c13.525,20.923,23.029,43.86,28.25,68.175l1.272,5.925H497V293.507z"></path>
	</g>
</g>
<g>
	<g>
		<path d="M256,109.715c-80.662,0-146.285,65.623-146.285,146.285S175.338,402.285,256,402.285S402.285,336.662,402.285,256    S336.662,109.715,256,109.715z M263.5,387.066v-70.839c4.431,0.761,8.927,1.152,13.435,1.152c21.081,0,40.897-8.206,55.797-23.106    c19.853-19.852,27.68-49.066,20.428-76.242l-1.119-4.194l-4.194-1.119c-6.659-1.777-13.538-2.678-20.444-2.678    c-21.082,0-40.898,8.206-55.798,23.106c-4.863,4.863-8.999,10.29-12.374,16.109c-3.832-11.253-10.194-21.672-18.838-30.316    c-14.9-14.9-34.716-23.106-55.797-23.106c-6.906,0-13.785,0.901-20.444,2.678l-4.194,1.119l-1.119,4.194    c-7.252,27.175,0.576,56.39,20.428,76.242c14.899,14.899,34.715,23.105,55.797,23.106h0.001c4.508,0,9.003-0.391,13.434-1.152    v85.047C179.586,383.165,124.715,325.873,124.715,256c0-72.391,58.894-131.285,131.285-131.285S387.285,183.609,387.285,256    C387.285,325.873,332.414,383.165,263.5,387.066z M295.553,259.72l-31.98,31.98c-0.728-17.685,5.893-35.201,18.639-47.948    c12.067-12.067,28.116-18.712,45.191-18.712c4.119,0,8.225,0.395,12.257,1.177c4.016,20.75-2.502,42.417-17.535,57.449    c-12.067,12.067-28.116,18.713-45.191,18.713c-0.922,0-1.843-0.027-2.762-0.066l31.987-31.987L295.553,259.72z M237.828,288.105    c-0.92,0.039-1.84,0.066-2.762,0.066h-0.001c-17.075,0-33.124-6.646-45.19-18.712c-15.032-15.033-21.551-36.699-17.535-57.449    c4.032-0.782,8.138-1.177,12.257-1.177c17.075,0,33.124,6.646,45.191,18.712c12.746,12.747,19.367,30.263,18.639,47.947    l-34.152-34.152l-10.606,10.606L237.828,288.105z"></path>
	</g>
</g>
<g>
	<g>
		<path d="M256,86.833c-93.279,0-169.167,75.888-169.167,169.167S162.721,425.167,256,425.167S425.167,349.279,425.167,256    S349.279,86.833,256,86.833z M256,410.167c-85.008,0-154.167-69.159-154.167-154.167S170.992,101.833,256,101.833    S410.167,170.992,410.167,256S341.008,410.167,256,410.167z"></path>
	</g>
</g>
<g>
	<g>
		<path d="M407.208,347.74c-24.305,39.968-64.19,69.175-109.43,80.132l3.531,14.578c49.085-11.888,92.355-43.568,118.715-86.917    L407.208,347.74z"></path>
	</g>
</g>
<g>
	<g>
		<path d="M424.308,310.41c-2.89,8.944-6.531,17.726-10.823,26.103l13.35,6.84c4.658-9.092,8.61-18.625,11.746-28.332    L424.308,310.41z"></path>
	</g>
</g>
<g>
	<g>
		<path d="M188.05,76.552C132.226,97.701,88.832,144.474,71.972,201.67l14.388,4.241c15.54-52.722,55.542-95.836,107.004-115.332    L188.05,76.552z"></path>
	</g>
</g>
</svg>